<svg width="192" height="192" viewBox="0 0 192 192" fill="none" xmlns="http://www.w3.org/2000/svg">
  <rect width="192" height="192" rx="40" fill="url(#grad)"/>
  <path d="M96 40L140 60V92C140 118.5 121.3 143.1 96 152C70.7 143.1 52 118.5 52 92V60L96 40Z" fill="white" fill-opacity="0.95"/>
  <path d="M96 52L132 68V92C132 114.2 116.2 134.6 96 142C75.8 134.6 60 114.2 60 92V68L96 52Z" fill="url(#grad2)"/>
  <path d="M88 100L82 94L78 98L88 108L112 84L108 80L88 100Z" fill="white"/>
  <defs>
    <linearGradient id="grad" x1="0" y1="0" x2="192" y2="192">
      <stop stop-color="#9c1e99"/>
      <stop offset="1" stop-color="#c850c0"/>
    </linearGradient>
    <linearGradient id="grad2" x1="60" y1="52" x2="132" y2="142">
      <stop stop-color="#9c1e99"/>
      <stop offset="1" stop-color="#fa990e"/>
    </linearGradient>
  </defs>
</svg>
