<svg width="32" height="32" viewBox="0 0 32 32" fill="none" xmlns="http://www.w3.org/2000/svg">
  <rect width="32" height="32" rx="7" fill="url(#g)"/>
  <path d="M16 6L24 10V16C24 20.5 20.7 24.6 16 26C11.3 24.6 8 20.5 8 16V10L16 6Z" fill="white" fill-opacity="0.95"/>
  <path d="M16 8L22 11V16C22 19.6 19.4 22.8 16 24C12.6 22.8 10 19.6 10 16V11L16 8Z" fill="url(#g2)"/>
  <path d="M14.5 17L12.5 15L11.5 16L14.5 19L20.5 13L19.5 12L14.5 17Z" fill="white"/>
  <defs>
    <linearGradient id="g" x1="0" y1="0" x2="32" y2="32"><stop stop-color="#9c1e99"/><stop offset="1" stop-color="#c850c0"/></linearGradient>
    <linearGradient id="g2" x1="10" y1="8" x2="22" y2="24"><stop stop-color="#9c1e99"/><stop offset="1" stop-color="#fa990e"/></linearGradient>
  </defs>
</svg>
